<?xml version="1.0" encoding="utf-8"?>
<!-- Generator: Adobe Illustrator 26.2.1, SVG Export Plug-In . SVG Version: 6.00 Build 0)  -->
<svg version="1.1" id="Layer_1" xmlns="http://www.w3.org/2000/svg" xmlns:xlink="http://www.w3.org/1999/xlink" x="0px" y="0px"
	 viewBox="0 0 504 144" style="enable-background:new 0 0 504 144;" xml:space="preserve">
<style type="text/css">
	.st0{stroke:#000000;stroke-width:9.000000e-02;stroke-miterlimit:10;}
</style>
<g>
	<g>
		<path d="M117.7,49.9c0.2,0.2,0.3,0.4,0.3,0.7c0,0.4-0.2,0.8-0.7,1.2c-0.2,0.2-0.4,0.3-0.5,0.3H115c-1.2,0-1.8,0.2-2,0.5
			c-0.3,0.8-0.4,1.8-0.4,3c0,2.2-0.5,4.2-1.4,6.1c-1,1.9-2.2,3.4-3.8,4.5c-1.6,1.1-3.3,1.7-5.1,1.7c-1.3,0-2.4-0.2-3.5-0.7
			c-0.8,0.4-1.4,0.8-2,1.4c-0.5,0.5-0.8,1-0.8,1.4c0,1.8,2.8,2.9,8.5,3.3c4,0.2,7,0.9,9,2c2,1.1,2.9,2.6,2.9,4.6
			c0,2.2-0.7,4.4-2.2,6.5c-1.4,2.2-3.3,4-5.6,5.3c-2.3,1.4-4.6,2.1-6.9,2.1c-3.7,0-6.6-0.7-8.8-2.1c-2.2-1.4-3.2-3.3-3.2-5.8
			c0-1.1,0.2-2.1,0.5-2.8c0.3-0.8,0.9-1.4,1.6-2.1l2.6-2.1l2.9-2.3c-2-0.4-3.5-1-4.4-1.7c-0.9-0.7-1.3-1.7-1.3-3
			c0-0.8,0.5-1.6,1.5-2.4c1-0.8,1.9-1.4,2.4-1.9c0.6-0.5,1-0.9,1.2-1.3c-1.6-0.9-2.8-2.1-3.8-3.6c-1-1.5-1.4-3.1-1.4-4.8
			c0-2,0.5-3.7,1.6-5.3c1-1.6,2.4-2.8,4.2-3.7c1.7-0.9,3.6-1.3,5.6-1.3c1.3,0,2.9,0.3,4.7,0.9c0.3,0.1,0.8,0.3,1.4,0.5
			c1,0.3,1.7,0.4,2.4,0.5c0.6,0.1,1.3,0.1,2,0.1c0.5,0,1.2,0,2.2-0.1l1.4-0.1C117.3,49.6,117.5,49.7,117.7,49.9z M110.2,78.8
			c-1.5-0.7-4-1.2-7.5-1.4c-1.3-0.1-2.2-0.2-2.8-0.3c-1.9,1.3-3.2,2.5-4,3.7c-0.8,1.2-1.1,2.6-1.1,4.3c0,1.7,0.8,3.2,2.3,4.4
			c1.5,1.2,3.5,1.8,5.7,1.8c2.6,0,4.6-0.6,6.2-1.8c1.1-0.8,1.9-1.9,2.5-3.2c0.6-1.3,0.9-2.7,0.9-4.2
			C112.5,80.6,111.7,79.6,110.2,78.8z M106.8,63.2c1.1-1.7,1.7-3.8,1.7-6.2c0-1.2-0.3-2.4-0.9-3.5c-0.6-1.1-1.4-2-2.3-2.7
			c-1-0.7-2-1-3-1c-1,0-2,0.3-2.8,1c-0.9,0.7-1.6,1.6-2.2,2.8c-0.5,1.2-0.8,2.4-0.8,3.7c0,1.5,0.3,2.9,0.8,4.2
			c0.6,1.3,1.3,2.3,2.3,3.1c1,0.8,2,1.1,3.1,1.1C104.3,65.7,105.7,64.9,106.8,63.2z"/>
		<path d="M125.3,74.2c-1.8-1.2-3.2-2.8-4.2-5s-1.5-4.6-1.5-7.5c0-2.4,0.6-4.7,1.7-6.9c1.2-2.1,2.7-3.8,4.6-5.1
			c1.9-1.2,4-1.9,6.3-1.9c2.6,0,4.8,0.8,6.4,2.3s2.5,3.5,2.5,5.9c0,1.4-0.7,2-2,2h-13.8c-0.6,0-1,0.2-1.3,0.5
			c-0.2,0.3-0.4,1-0.4,1.9c0,2,0.4,3.9,1.3,5.7c0.9,1.7,2.1,3.1,3.7,4.1c1.5,1,3.2,1.5,5.1,1.5c2.6,0,4.7-1,6.4-2.9
			c0.3-0.3,0.5-0.5,0.7-0.5c0.3,0,0.5,0.2,0.5,0.7c0,0.8-0.4,1.7-1.2,2.7c-1,1.3-2.2,2.3-3.8,3c-1.6,0.7-3.2,1.1-5,1.1
			C129.1,75.9,127.1,75.4,125.3,74.2z M131.4,56.1c2,0,3.7-0.1,4.8-0.3c0.3,0,0.5-0.5,0.5-1.4c0-1.3-0.6-2.3-1.7-3.2
			c-1.1-0.9-2.4-1.3-4-1.3c-1,0-2,0.3-3,0.9c-1,0.6-1.9,1.3-2.5,2.2c-0.7,0.9-1,1.7-1,2.6c0,0.4,0.3,0.7,0.8,0.7H131.4z"/>
		<path d="M144.6,74.4c0-0.3,0.1-0.5,0.3-0.6c0.2-0.1,0.6-0.2,1.2-0.4c0.9-0.2,1.6-0.5,2.1-0.8c0.5-0.3,0.7-0.9,0.7-1.7v-14
			c0-1.4-0.2-2.5-0.5-3.2c-0.3-0.7-1-1.2-2-1.5c-0.4-0.1-0.7-0.4-0.7-0.8c0-0.5,0.2-0.7,0.6-0.8c1.3-0.3,2.5-0.8,3.4-1.3
			c0.9-0.5,2-1.2,3.1-2c0.3-0.2,0.5-0.3,0.7-0.3c0.2,0,0.3,0.2,0.3,0.5l-0.1,1.4c0,0.3-0.1,0.8-0.1,1.3c0,0.5-0.1,1-0.1,1.5
			c0,0.4,0,0.7,0.1,0.8c1.6-1.5,3.2-2.6,4.9-3.3c1.7-0.7,3.6-1.1,5.6-1.1c2.1,0,3.8,0.9,5.3,2.6c1.4,1.7,2.1,3.9,2.1,6.5v13.9
			c0,0.8,0.2,1.3,0.7,1.6c0.5,0.3,1.2,0.6,2.1,0.9c0.5,0.2,0.9,0.3,1.1,0.5c0.2,0.2,0.4,0.4,0.4,0.7c0,0.4-0.4,0.6-1.3,0.6
			c-1.2,0-2.1-0.1-2.8-0.2c-0.9-0.1-1.7-0.1-2.4-0.1c-0.7,0-1.5,0-2.5,0.1c-0.7,0.1-1.7,0.2-2.9,0.2c-0.9,0-1.3-0.2-1.3-0.6
			c0-0.3,0.1-0.5,0.4-0.7c0.2-0.2,0.6-0.3,1.1-0.5c1-0.3,1.7-0.6,2.1-0.9c0.5-0.3,0.7-0.8,0.7-1.6V57.2c0-1.9-0.5-3.4-1.6-4.4
			c-1.1-1.1-2.5-1.7-4.3-1.7c-2.7,0-5.1,0.9-7.3,2.6c-0.3,0.3-0.5,0.8-0.5,1.5v15.7c0,0.8,0.2,1.3,0.7,1.7c0.5,0.3,1.2,0.6,2.1,0.8
			c0.5,0.1,0.9,0.3,1.1,0.4c0.2,0.2,0.4,0.4,0.4,0.6c0,0.5-0.4,0.7-1.3,0.7c-1.1,0-2.1-0.1-2.8-0.2c-1-0.1-1.8-0.1-2.5-0.1
			c-0.7,0-1.5,0-2.5,0.1c-0.7,0.1-1.6,0.2-2.8,0.2C145.1,75.2,144.6,74.9,144.6,74.4z"/>
		<path d="M185.2,74.2c-1.8-1.2-3.2-2.8-4.2-5c-1-2.2-1.5-4.6-1.5-7.5c0-2.4,0.6-4.7,1.7-6.9c1.2-2.1,2.7-3.8,4.6-5.1
			c1.9-1.2,4-1.9,6.3-1.9c2.6,0,4.8,0.8,6.4,2.3c1.7,1.5,2.5,3.5,2.5,5.9c0,1.4-0.7,2-2,2h-13.8c-0.6,0-1,0.2-1.3,0.5
			c-0.2,0.3-0.4,1-0.4,1.9c0,2,0.4,3.9,1.3,5.7c0.9,1.7,2.1,3.1,3.7,4.1c1.5,1,3.2,1.5,5.1,1.5c2.6,0,4.7-1,6.4-2.9
			c0.3-0.3,0.5-0.5,0.7-0.5c0.3,0,0.5,0.2,0.5,0.7c0,0.8-0.4,1.7-1.2,2.7c-1,1.3-2.2,2.3-3.8,3c-1.6,0.7-3.2,1.1-5,1.1
			C189.1,75.9,187,75.4,185.2,74.2z M191.4,56.1c2,0,3.7-0.1,4.8-0.3c0.3,0,0.5-0.5,0.5-1.4c0-1.3-0.6-2.3-1.7-3.2
			c-1.1-0.9-2.4-1.3-4-1.3c-1,0-1.9,0.3-3,0.9s-1.9,1.3-2.5,2.2c-0.7,0.9-1,1.7-1,2.6c0,0.4,0.3,0.7,0.8,0.7H191.4z"/>
		<path d="M215.8,73.8c-0.2-0.4-0.6-1.4-1-2.9l-0.6-1.6c-0.5-1.4-1.8-4.6-3.7-9.4l-2.6-6.4c-0.3-0.8-0.8-1.5-1.4-2.1
			c-0.6-0.6-1.3-1-1.9-1.2c-0.4-0.2-0.7-0.3-0.9-0.5c-0.2-0.1-0.3-0.3-0.3-0.6c0-0.4,0.4-0.6,1.3-0.6c1.1,0,2,0.1,2.5,0.2
			c0.7,0.1,1.4,0.1,2.2,0.1c0.7,0,1.5,0,2.3-0.1c0.7-0.1,1.5-0.2,2.6-0.2c0.9,0,1.3,0.2,1.3,0.6c0,0.3-0.1,0.5-0.4,0.7
			c-0.3,0.2-0.6,0.3-1.1,0.5c-0.4,0.2-0.8,0.5-1,1c-0.2,0.5-0.3,1-0.3,1.7c0,0.7,0.1,1.3,0.3,1.8l5.2,13.7c0.1,0,0.2,0,0.2,0l5-12.7
			c0.3-0.9,0.5-1.8,0.5-2.7c0-0.8-0.1-1.4-0.4-1.8c-0.3-0.4-0.7-0.7-1.3-0.9c-0.6-0.2-1-0.4-1.2-0.6c-0.2-0.2-0.3-0.4-0.3-0.6
			c0-0.4,0.4-0.6,1.3-0.6c0.2,0,0.7,0,1.4,0.1c1.7,0.1,2.8,0.2,3.3,0.2s1.4-0.1,2.5-0.2c0.5-0.1,1-0.1,1.3-0.1
			c0.9,0,1.3,0.2,1.3,0.6c0,0.3-0.1,0.5-0.3,0.7c-0.2,0.2-0.6,0.3-1.2,0.5c-0.7,0.2-1.4,0.7-2.2,1.6c-0.8,0.8-1.4,1.8-1.8,2.8
			l-5.1,12.3c-0.3,0.9-0.8,2-1.3,3.4c-0.5,1.4-0.9,2.4-1.1,3c-0.1,0.3-0.3,0.8-0.7,1.5s-0.6,1.2-0.8,1.5H217
			C216.8,76.3,216.4,75.5,215.8,73.8z"/>
		<path d="M233.2,74.4c0-0.3,0.1-0.5,0.4-0.7c0.2-0.1,0.6-0.3,1.1-0.4c1-0.3,1.7-0.6,2.2-0.9c0.4-0.3,0.7-0.9,0.7-1.6V56.7
			c0-2.9-1-4.5-2.9-4.8c-0.4,0-0.7-0.3-0.7-0.8c0-0.5,0.2-0.7,0.6-0.8c2.7-0.6,4.9-1.7,6.9-3.3c0.4-0.3,0.7-0.5,0.9-0.5
			c0.3,0,0.4,0.1,0.4,0.3c0,0.5-0.1,1.3-0.2,2.5c0,0.5-0.1,1.5-0.2,2.9c-0.1,1.4-0.2,2.6-0.2,3.4v15.2c0,0.7,0.2,1.2,0.7,1.6
			c0.5,0.3,1.2,0.7,2.1,0.9c0.5,0.1,0.9,0.3,1.1,0.4c0.2,0.1,0.4,0.3,0.4,0.7c0,0.5-0.4,0.7-1.3,0.7c-1.1,0-2-0.1-2.7-0.2
			c-1-0.1-1.8-0.1-2.5-0.1c-0.7,0-1.5,0-2.5,0.1c-0.7,0.1-1.6,0.2-2.8,0.2C233.7,75.2,233.2,74.9,233.2,74.4z M237.4,40.3
			c-0.6-0.6-0.9-1.4-0.9-2.3c0-1,0.3-1.8,0.9-2.4c0.6-0.6,1.4-0.9,2.3-0.9c1,0,1.8,0.3,2.4,0.9c0.6,0.6,0.9,1.4,0.9,2.4
			c0,0.9-0.3,1.7-0.9,2.3c-0.6,0.6-1.4,0.9-2.4,0.9C238.8,41.2,238.1,40.9,237.4,40.3z"/>
		<path d="M255.3,74.2c-1.8-1.2-3.2-2.8-4.2-5c-1-2.2-1.5-4.6-1.5-7.5c0-2.4,0.6-4.7,1.7-6.9c1.2-2.1,2.7-3.8,4.6-5.1
			c1.9-1.2,4-1.9,6.3-1.9c2.6,0,4.8,0.8,6.4,2.3c1.7,1.5,2.5,3.5,2.5,5.9c0,1.4-0.7,2-2,2h-13.8c-0.6,0-1,0.2-1.3,0.5
			c-0.2,0.3-0.4,1-0.4,1.9c0,2,0.4,3.9,1.3,5.7c0.9,1.7,2.1,3.1,3.7,4.1c1.5,1,3.2,1.5,5.1,1.5c2.6,0,4.7-1,6.4-2.9
			c0.3-0.3,0.5-0.5,0.7-0.5c0.3,0,0.5,0.2,0.5,0.7c0,0.8-0.4,1.7-1.2,2.7c-1,1.3-2.2,2.3-3.8,3c-1.6,0.7-3.2,1.1-5,1.1
			C259.2,75.9,257.1,75.4,255.3,74.2z M261.5,56.1c2,0,3.7-0.1,4.8-0.3c0.3,0,0.5-0.5,0.5-1.4c0-1.3-0.6-2.3-1.7-3.2
			c-1.1-0.9-2.4-1.3-4-1.3c-1,0-2,0.3-3,0.9s-1.9,1.3-2.5,2.2c-0.7,0.9-1,1.7-1,2.6c0,0.4,0.3,0.7,0.8,0.7H261.5z"/>
		<path d="M285.9,73.8c-0.2-0.4-0.6-1.4-1-2.9l-0.6-1.6c-0.5-1.4-1.8-4.6-3.7-9.4l-2.6-6.4c-0.3-0.8-0.8-1.5-1.4-2.1
			c-0.6-0.6-1.3-1-1.9-1.2c-0.4-0.2-0.7-0.3-0.9-0.5c-0.2-0.1-0.3-0.3-0.3-0.6c0-0.4,0.4-0.6,1.3-0.6c1.1,0,2,0.1,2.5,0.2
			c0.7,0.1,1.4,0.1,2.2,0.1c0.7,0,1.5,0,2.3-0.1c0.7-0.1,1.5-0.2,2.6-0.2c0.9,0,1.3,0.2,1.3,0.6c0,0.3-0.1,0.5-0.4,0.7
			c-0.3,0.2-0.6,0.3-1.1,0.5c-0.4,0.2-0.8,0.5-1,1c-0.2,0.5-0.3,1-0.3,1.7c0,0.7,0.1,1.3,0.3,1.8l5.2,13.7c0.1,0,0.2,0,0.2,0l5-12.7
			c0.3-0.9,0.5-1.8,0.5-2.7c0-0.8-0.1-1.4-0.4-1.8c-0.3-0.4-0.7-0.7-1.3-0.9c-0.6-0.2-1-0.4-1.2-0.6c-0.2-0.2-0.3-0.4-0.3-0.6
			c0-0.4,0.4-0.6,1.3-0.6c0.2,0,0.7,0,1.4,0.1c1.7,0.1,2.8,0.2,3.3,0.2s1.4-0.1,2.5-0.2c0.5-0.1,1-0.1,1.3-0.1
			c0.9,0,1.3,0.2,1.3,0.6c0,0.3-0.1,0.5-0.3,0.7c-0.2,0.2-0.6,0.3-1.2,0.5c-0.7,0.2-1.4,0.7-2.2,1.6c-0.8,0.8-1.4,1.8-1.8,2.8
			l-5.1,12.3c-0.3,0.9-0.8,2-1.3,3.4c-0.5,1.4-0.9,2.4-1.1,3c-0.1,0.3-0.3,0.8-0.7,1.5s-0.6,1.2-0.8,1.5h-0.4
			C286.9,76.3,286.5,75.5,285.9,73.8z"/>
		<path d="M307.8,74.2c-1.8-1.2-3.2-2.8-4.2-5c-1-2.2-1.5-4.6-1.5-7.5c0-2.4,0.6-4.7,1.7-6.9c1.2-2.1,2.7-3.8,4.6-5.1
			c1.9-1.2,4-1.9,6.3-1.9c2.6,0,4.8,0.8,6.4,2.3c1.7,1.5,2.5,3.5,2.5,5.9c0,1.4-0.7,2-2,2h-13.8c-0.6,0-1,0.2-1.3,0.5
			c-0.2,0.3-0.4,1-0.4,1.9c0,2,0.4,3.9,1.3,5.7c0.9,1.7,2.1,3.1,3.7,4.1c1.5,1,3.2,1.5,5.1,1.5c2.6,0,4.7-1,6.4-2.9
			c0.3-0.3,0.5-0.5,0.7-0.5c0.3,0,0.5,0.2,0.5,0.7c0,0.8-0.4,1.7-1.2,2.7c-1,1.3-2.2,2.3-3.8,3c-1.6,0.7-3.2,1.1-5,1.1
			C311.7,75.9,309.6,75.4,307.8,74.2z M314,56.1c2,0,3.7-0.1,4.8-0.3c0.3,0,0.5-0.5,0.5-1.4c0-1.3-0.6-2.3-1.7-3.2
			c-1.1-0.9-2.4-1.3-4-1.3c-1,0-2,0.3-3,0.9s-1.9,1.3-2.5,2.2c-0.7,0.9-1,1.7-1,2.6c0,0.4,0.3,0.7,0.8,0.7H314z"/>
		<path d="M339.9,74.6c0-0.3,0.1-0.5,0.4-0.7c0.2-0.2,0.6-0.3,1.1-0.5c1-0.3,1.7-0.6,2.1-0.9c0.5-0.3,0.7-0.8,0.7-1.6V38
			c0-2.7-1-4.3-3-4.8c-0.2,0-0.3-0.1-0.4-0.3c-0.1-0.2-0.1-0.3-0.1-0.6c0-0.4,0.2-0.7,0.5-0.8c1.7-0.4,3.6-1,5.8-2l1.6-0.6
			c0.2-0.1,0.3-0.1,0.4-0.1c0.1,0,0.2,0.1,0.2,0.2c0.1,0.1,0.1,0.2,0.1,0.3c0,0.3-0.1,1.1-0.2,2.5c-0.2,1.4-0.2,3.5-0.2,6.4v32.7
			c0,0.8,0.2,1.3,0.7,1.6c0.5,0.3,1.2,0.6,2.1,0.9c0.5,0.2,0.9,0.3,1.1,0.5c0.2,0.2,0.4,0.4,0.4,0.7c0,0.4-0.4,0.6-1.3,0.6
			c-1.1,0-2.1-0.1-2.8-0.2c-1-0.1-1.8-0.1-2.5-0.1c-0.7,0-1.5,0-2.5,0.1c-0.7,0.1-1.6,0.2-2.8,0.2C340.3,75.2,339.9,75,339.9,74.6z"
			/>
		<path d="M359.6,75c-0.8-0.6-1.5-1.3-2.1-2.2c-0.5-0.9-0.8-1.7-0.8-2.5c0-1.3,0.4-2.4,1.1-3.2s1.9-1.5,3.6-2.2l6.7-2.7
			c0.8-0.3,1.3-0.7,1.5-0.9c0.2-0.3,0.3-0.8,0.3-1.7l0.1-4.2c0-1.2-0.3-2.2-1-3c-0.7-0.8-1.7-1.2-2.9-1.2c-0.7,0-1.3,0.1-2,0.3
			c-0.7,0.2-1.2,0.5-1.6,0.8c-0.4,0.3-0.7,0.9-0.7,1.9l0.1,1.2c0,0.3-0.6,0.8-1.7,1.4c-1.1,0.6-2,0.9-2.6,0.9
			c-0.2,0-0.4-0.1-0.5-0.2c-0.1-0.1-0.2-0.2-0.2-0.4c0-0.7,0.2-1.4,0.7-2.3c0.5-0.8,1.1-1.6,1.9-2.3c1.5-1.3,3.1-2.5,5-3.3
			c1.9-0.9,3.4-1.3,4.7-1.3c1.6,0,2.9,0.6,3.9,1.7c1,1.1,1.5,2.5,1.5,4.1l-0.3,15.7c0,0.9,0.2,1.7,0.6,2.2c0.4,0.6,1,0.8,1.8,0.8
			c1.1,0,1.9-0.2,2.4-0.7c0.2-0.2,0.4-0.3,0.5-0.3c0.2,0,0.4,0.1,0.5,0.2s0.2,0.3,0.2,0.5c0,0.2-0.1,0.4-0.2,0.7
			c-0.1,0.3-0.3,0.5-0.5,0.8c-0.7,0.7-1.4,1.3-2.3,1.7c-0.8,0.4-1.6,0.6-2.3,0.6c-2,0-3.6-1.1-4.8-3.4h-0.2c-1.4,1.2-2.8,2-4.1,2.6
			c-1.3,0.5-2.7,0.8-4.1,0.8C361.2,75.9,360.5,75.6,359.6,75z M368.9,71.2c0.3-0.3,0.5-0.6,0.6-1c0.1-0.4,0.2-1,0.3-1.7l0.1-3.2
			v-0.4c0-0.3,0-0.6-0.1-0.8c-0.1-0.2-0.2-0.2-0.5-0.2c-0.3,0-0.7,0.1-1.3,0.3c-2.2,0.8-3.7,1.6-4.7,2.5c-1,0.9-1.4,1.7-1.4,2.5
			c0,1.1,0.3,1.9,0.9,2.5c0.6,0.6,1.4,0.9,2.3,0.9C366.6,72.7,367.9,72.2,368.9,71.2z"/>
		<path d="M403.9,75.7l0.1-1.8c0.1-0.9,0.2-1.6,0.2-2.3v-0.4c-1.7,1.7-3.4,2.8-5.1,3.6c-1.7,0.7-3.6,1.1-5.7,1.1c-2.2,0-4-0.7-5.4-2
			c-1.4-1.3-2.1-3.3-2.1-5.7V54.8c0-1-0.2-1.7-0.7-2.3c-0.4-0.6-1.2-1-2.2-1.4c-0.6-0.2-0.8-0.5-0.8-1c0-0.6,0.3-1,1-1
			c1.3-0.1,2.4-0.2,3.2-0.3c0.8-0.1,1.9-0.4,3.3-0.7l0.5-0.1c0.5,0,0.7,0.3,0.7,0.9c-0.3,2-0.4,3.7-0.4,5v12.7c0,1.6,0.6,3,1.7,4.1
			c1.1,1.2,2.4,1.8,3.8,1.8c1.3,0,2.4-0.1,3.2-0.2c0.8-0.2,1.6-0.5,2.3-1.1c0.8-0.6,1.5-1.2,2.1-2c0.6-0.8,0.9-1.7,0.9-2.9v-12
			c0-1.2-0.5-2-1.5-2.5c-1-0.5-1.9-0.8-2.9-0.8c-0.9,0-1.4-0.4-1.4-1.1c0-0.7,0.5-1,1.4-1c1.9,0,3.4-0.1,4.5-0.3
			c1.1-0.2,2.3-0.4,3.6-0.8c0.3-0.1,0.5-0.1,0.7-0.1c0.2,0,0.4,0.1,0.6,0.2c0.2,0.1,0.3,0.3,0.3,0.5l-0.1,0.6
			c-0.1,0.5-0.2,1.2-0.3,2.1c-0.1,0.9-0.2,1.7-0.2,2.5v15.1c0,2.2,0.4,3.3,1.2,3.3l1.5-0.1l1.5-0.1c0.7,0,1,0.3,1,0.8
			c0,0.3-0.1,0.6-0.2,0.7c-0.2,0.1-0.4,0.2-0.7,0.2c-1.5,0.2-2.8,0.5-3.9,0.8s-2.4,0.8-3.7,1.4c-0.5,0.3-1,0.4-1.3,0.4
			C404,76.2,403.9,76,403.9,75.7z"/>
	</g>
	<g>
		<path class="st0" d="M210.1,95.1v8.5c0,1,0,2.1-0.5,3c-0.4,0.8-1.3,1.9-3.1,1.9c-1.2,0-1.9-0.4-2.3-0.7l1-1.7
			c0.3,0.2,0.7,0.5,1.4,0.5c0.3,0,1-0.1,1.3-0.9c0.1-0.3,0.2-0.8,0.2-2.1v-8.5H210.1z"/>
		<path class="st0" d="M223.4,97h-5.2v3.3h5.1v1.9h-5.1v4.1h5.2v1.9h-7.2V95.1h7.2V97z"/>
		<path class="st0" d="M229.6,95.1l3.5,8.7l3.5-9.4l3.4,9.4l3.6-8.7h2.2l-5.8,13.9l-3.4-9.3L233,109l-5.6-13.9H229.6z"/>
		<path class="st0" d="M257.5,97h-5.2v3.3h5.1v1.9h-5.1v4.1h5.2v1.9h-7.2V95.1h7.2V97z"/>
		<path class="st0" d="M265,95.1v11.2h3.8v1.9H263V95.1H265z"/>
		<path class="st0" d="M276,95.1c1.6,0,2.6,0.2,3.5,0.8c1.4,1,1.5,2.5,1.5,3.1c0,1.9-1.2,3.3-2.9,3.6l4.1,5.6h-2.4l-3.7-5.4h-0.4
			v5.4h-2V95.1H276z M275.7,101.1h0.6c0.5,0,2.8-0.1,2.8-2.1c0-1.8-1.7-2-2.7-2h-0.7V101.1z"/>
		<path class="st0" d="M289.8,102.5l-4.3-7.4h2.3l3,5.2l3-5.2h2.3l-4.3,7.4v5.6h-2V102.5z"/>
	</g>
</g>
</svg>
